<svg id="Group_1" data-name="Group 1" xmlns="http://www.w3.org/2000/svg" width="953.8" height="362.92" viewBox="0 0 953.8 362.92">
    <path id="Path_1" data-name="Path 1" d="M2,218.362H32.617v-56H68.18l29.67,56h34.487l-36.963-61.19c19.244-9.519,27.856-30.37,27.856-47.348,0-31.973-19.945-50.109-55.713-50.109H2V86.456H64.1c20.4,0,30.37,8.361,30.37,24.024,0,16.771-11.785,26.5-30.164,26.5H2Z" fill="none" stroke="#000" stroke-width="6"/>
    <path id="Path_2" data-name="Path 2" d="M263.627,89.382V59.712h-117.4v29.67Zm0,63.708v-28.1h-117.4v28.1Zm-117.4,65.272h117.4V188.445h-117.4Z" fill="none" stroke="#000" stroke-width="4"/>
    <path id="Path_3" data-name="Path 3" d="M391.413,181.666l.413-126.92a52.746,52.746,0,1,0-105.492,0V282.213a26.369,26.369,0,0,0,52.738,0V54.746m52.342,126.506V308.174a52.542,52.542,0,1,0,105.08,0V80.707a26.373,26.373,0,1,0-52.746,0V308.174" fill="none" stroke="#000" stroke-linejoin="bevel" stroke-miterlimit="10" stroke-width="6"/>
    <path id="Path_4" data-name="Path 4" d="M573.924,172.869c40.793,0,57.567-24.931,57.567-53.941,0-28.516-14.506-50.974-57.567-50.974H511.37V94.7h57.36c21.716,0,30.576,8.613,30.576,25.137s-10.631,26.331-30.366,26.331H511.37V226.6h30.617V172.869Z" fill="none" stroke="#000" stroke-width="6"/>
    <path id="Path_5" data-name="Path 5" d="M708.508,172.869c40.793,0,57.567-24.931,57.567-53.941,0-28.516-14.506-50.974-57.567-50.974H645.954V94.7h57.36c21.716,0,30.576,8.613,30.576,25.137s-10.631,26.331-30.366,26.331h-57.57V226.6h30.617V172.869Z" fill="none" stroke="#000" stroke-width="6"/>
    <path id="Path_6" data-name="Path 6" d="M811.364,92.431V67.954H780.54V92.431ZM780.54,226.6h30.617V113.283H780.54Z" fill="none" stroke="#000" stroke-width="6"/>
    <path id="Path_7" data-name="Path 7" d="M825.827,67.954v29.67H951.8V67.954Zm47.8,49.862V226.6h30.58V117.816Z" fill="none" stroke="#000" stroke-width="6"/>
</svg>
